<svg xmlns="http://www.w3.org/2000/svg" viewBox="0 0 60 64"><defs><style>.cls-1{fill:#cfd8dd;}.cls-2{fill:#ebeff1;}.cls-3{fill:#0090e0;}</style></defs><title>Typography</title><g id="Layer_2" data-name="Layer 2"><g id="Layer_1-2" data-name="Layer 1"><rect class="cls-1" x="4" y="4" width="56" height="60" rx="4" ry="4"/><rect class="cls-2" width="56" height="60" rx="4" ry="4"/><path class="cls-3" d="M8,8v6h2a2,2,0,0,1,2-2h4V24a2,2,0,0,1-2,2v2h8V26a2,2,0,0,1-2-2V12h4a2,2,0,0,1,2,2h2V8Z"/><rect class="cls-1" x="32" y="8" width="10" height="4"/><rect class="cls-1" x="32" y="24" width="14" height="4"/><rect class="cls-1" x="8" y="32" width="40" height="4"/><rect class="cls-1" x="8" y="40" width="36" height="4"/><rect class="cls-1" x="8" y="48" width="18" height="4"/><rect class="cls-1" x="32" y="16" width="16" height="4"/></g></g></svg>